<svg xmlns="http://www.w3.org/2000/svg" width="191" height="46" viewBox="0 0 191 46">
    <g fill="#FFF" fill-rule="evenodd">
        <path d="M72.843 28.038L74.093 28.038 74.093 17.605 72.843 17.605zM123.19 34.168L124.439 34.168 124.439 11.475 123.19 11.475z"/>
        <g>
            <path d="M84.516 26.059l.044-.015c-.068-.238-.105-.477-.105-.716v-7.765h1.251v10.433h-1.25l-5.449-8.376-.045.015c.07.238.104.477.104.716v7.645h-1.251V17.563h1.251l5.45 8.496zM90.679 18.607v4.174h3.709c.178 0 .291-.009.342-.024.05-.014.119-.057.208-.126.09-.07.14-.126.156-.172.015-.045.023-.142.023-.29v-2.951c0-.15-.008-.247-.023-.29-.015-.047-.067-.104-.156-.173-.09-.069-.159-.112-.208-.126-.05-.015-.164-.022-.342-.022h-3.71zm0 5.216v4.173h-1.25V17.563h5.509c.238 0 .476.1.715.3l.356.296c.239.199.358.448.358.746v3.577c0 .299-.119.546-.358.745l-.356.298c-.239.199-.477.298-.715.298h-4.26zM106.387 17.563h1.251v9.092c0 .299-.12.546-.358.745l-.357.299c-.238.198-.475.298-.715.298h-5.06c-.24 0-.478-.1-.718-.298l-.355-.299c-.24-.199-.358-.446-.358-.745v-9.092h1.25v8.78c0 .147.008.245.023.289.014.046.067.103.157.172.089.07.158.112.208.126.049.015.165.024.341.024h3.961c.179 0 .292-.009.343-.024.05-.014.12-.056.208-.126s.143-.126.155-.172c.017-.044.024-.142.024-.29v-8.779zM109.781 17.563L117.643 17.563 117.643 18.607 114.337 18.607 114.337 27.997 113.086 27.997 113.086 18.607 109.781 18.607zM137.728 26.341v-7.123c0-.15-.008-.247-.023-.291-.015-.044-.068-.1-.156-.172-.09-.07-.157-.112-.208-.125-.05-.016-.164-.024-.343-.024h-4.348c-.178 0-.292.008-.342.024-.05.013-.12.055-.209.125-.088.071-.14.128-.155.172-.015.044-.023.142-.023.29v7.124c0 .15.008.246.023.29.015.047.067.104.155.173.089.07.158.112.21.127.05.014.163.022.341.022h4.348c.179 0 .292-.008.343-.022.05-.015.118-.057.208-.127.088-.07.141-.126.156-.172.015-.045.023-.141.023-.291m-5.629-8.778h5.45c.238 0 .475.1.715.298l.358.298c.238.198.355.447.355.745v7.75c0 .299-.117.548-.355.746l-.358.299c-.24.198-.477.298-.715.298h-5.45c-.237 0-.475-.1-.714-.298l-.358-.3c-.238-.197-.356-.446-.356-.744v-7.75c0-.299.118-.548.356-.746l.358-.298c.24-.198.477-.298.714-.298M149.37 17.563h1.251v9.092c0 .299-.117.546-.357.745l-.358.299c-.238.198-.475.298-.715.298h-5.06c-.24 0-.478-.1-.716-.298l-.357-.299c-.238-.199-.358-.446-.358-.745v-9.092h1.25v8.78c0 .147.008.245.025.289.013.046.065.103.156.172.088.07.157.112.208.126.048.015.164.024.343.024h3.96c.177 0 .292-.009.34-.024.051-.014.12-.056.209-.126.09-.07.143-.126.156-.172.017-.044.023-.142.023-.29v-8.779zM152.765 17.563L160.627 17.563 160.627 18.607 157.32 18.607 157.32 27.997 156.071 27.997 156.071 18.607 152.765 18.607zM164.036 18.607v4.174h3.706c.179 0 .294-.009.343-.024.05-.014.12-.057.21-.126.089-.07.141-.126.156-.172.015-.045.023-.142.023-.29v-2.951c0-.15-.008-.247-.023-.29-.015-.047-.067-.104-.156-.173-.09-.069-.16-.112-.21-.126-.049-.015-.164-.022-.343-.022h-3.706zm0 5.216v4.173h-1.251V17.563h5.51c.238 0 .476.1.713.3l.358.296c.238.199.357.448.357.746v3.577c0 .299-.12.546-.357.745l-.358.298c-.237.199-.475.298-.713.298h-4.259zM179.744 17.563h1.251v9.092c0 .299-.12.546-.36.745l-.355.299c-.24.198-.478.298-.715.298h-5.063c-.237 0-.475-.1-.715-.298l-.355-.299c-.24-.199-.358-.446-.358-.745v-9.092h1.25v8.78c0 .147.008.245.022.289.015.046.068.103.156.172.09.07.158.112.208.126.05.015.164.024.343.024h3.96c.18 0 .293-.009.344-.024.048-.014.12-.056.208-.126.09-.07.14-.126.155-.172.015-.044.024-.142.024-.29v-8.779zM183.138 17.563L190.998 17.563 190.998 18.607 187.694 18.607 187.694 27.997 186.443 27.997 186.443 18.607 183.138 18.607zM1.902 44.607c-.722 0-1.31-.588-1.31-1.31 0-.723.588-1.31 1.31-1.31.603 0 1.109.41 1.262.965l-.002.025c0 .048.013.095.036.136.006.062.013.121.013.184 0 .722-.587 1.31-1.309 1.31m3.408-5.785c-.722 0-1.31-.587-1.31-1.309 0-.724.588-1.31 1.31-1.31.721 0 1.31.586 1.31 1.31 0 .722-.589 1.31-1.31 1.31m3.704-5.488c-.722 0-1.31-.588-1.31-1.31 0-.724.588-1.31 1.31-1.31.722 0 1.31.586 1.31 1.31 0 .722-.588 1.31-1.31 1.31m3.408-5.19c-.722 0-1.31-.588-1.31-1.312 0-.722.588-1.311 1.31-1.311.633 0 1.163.455 1.283 1.054-.016.035-.024.074-.024.117 0 .058.018.114.048.162-.01.712-.593 1.29-1.307 1.29m4.74-4.104c-.722 0-1.307-.589-1.307-1.31 0-.723.585-1.312 1.307-1.312.724 0 1.31.589 1.31 1.311s-.586 1.31-1.31 1.31m-3.457-5.056c-.12.598-.65 1.053-1.283 1.053-.722 0-1.31-.59-1.31-1.312 0-.722.588-1.31 1.31-1.31.714 0 1.297.578 1.307 1.29-.03.046-.048.102-.048.162 0 .043.008.082.024.117m-4.691-4.139c-.722 0-1.31-.588-1.31-1.31 0-.723.588-1.312 1.31-1.312.722 0 1.31.59 1.31 1.312 0 .722-.588 1.31-1.31 1.31M5.31 9.357c-.722 0-1.31-.588-1.31-1.31 0-.722.588-1.311 1.31-1.311.721 0 1.31.589 1.31 1.311s-.589 1.31-1.31 1.31M3.194 2.468c-.1.625-.64 1.105-1.292 1.105-.722 0-1.31-.588-1.31-1.31 0-.723.588-1.312 1.31-1.312.695 0 1.262.544 1.304 1.23-.027.044-.044.098-.044.156 0 .046.012.091.032.131m.63-.426C3.716 1.097 2.894.36 1.92.36.87.359.01 1.212.01 2.263c0 1.05.847 1.903 1.896 1.903.92 0 1.69-.66 1.863-1.53 13.893.121 25.251 8.346 26.15 18.694-.73-1.421-2.135-3.763-4.425-6.129-3.306-3.416-9.15-7.487-18.21-7.487-.035 0-.069.006-.1.018-.15-.9-.932-1.589-1.874-1.589-1.049 0-1.902.854-1.902 1.904 0 1.05.853 1.904 1.902 1.904.966 0 1.764-.725 1.883-1.66.03.01.06.015.092.015 8.84 0 14.541 3.964 17.766 7.29 2.072 2.136 3.417 4.29 4.175 5.7-.99-.89-2.516-2.159-4.437-3.418-3.222-2.113-8.247-4.628-13.897-4.635-.143-.91-.929-1.612-1.878-1.612-1.05 0-1.901.854-1.901 1.904 0 1.05.851 1.904 1.9 1.904.947 0 1.732-.696 1.877-1.603 8.44.011 15.59 5.759 18.156 8.102-2.844-1.021-9.641-3.265-14.73-3.362-.078-.981-.896-1.754-1.894-1.754-1.05 0-1.903.855-1.903 1.903 0 1.05.854 1.906 1.903 1.906.896 0 1.648-.68 1.847-1.518 5.029.086 11.81 2.363 14.61 3.288h-9.828c-.11-.925-.914-1.628-1.89-1.628-1.047 0-1.9.881-1.9 1.93 0 1.05.853 1.876 1.9 1.876.922 0 1.694-.637 1.868-1.56h9.709c-2.875 1.231-9.52 3.247-14.47 3.331-.198-.837-.95-1.44-1.846-1.44-1.05 0-1.903.863-1.903 1.913s.854 1.91 1.903 1.91c.998 0 1.816-.773 1.894-1.75 5.089-.099 11.886-2.341 14.73-3.364-2.565 2.345-9.717 8.093-18.156 8.104-.145-.908-.93-1.603-1.876-1.603-1.05 0-1.901.855-1.901 1.904 0 1.05.851 1.904 1.9 1.904.95 0 1.736-.7 1.879-1.612 5.65-.006 10.675-2.524 13.897-4.634 1.957-1.282 3.503-2.575 4.49-3.467-.744 1.404-2.098 3.599-4.21 5.78-3.228 3.332-8.933 7.307-17.784 7.307-.029 0-.056.007-.085.015-.097-.958-.908-1.709-1.89-1.709-1.049 0-1.902.854-1.902 1.905 0 1.048.853 1.904 1.902 1.904.925 0 1.697-.666 1.865-1.542.035.012.072.021.11.021 9.06 0 14.902-4.072 18.207-7.487 2.253-2.327 3.65-4.631 4.39-6.06C28.749 34.542 17.46 42.584 3.7 42.678c-.257-.748-.965-1.285-1.797-1.285-1.049 0-1.902.855-1.902 1.904 0 1.05.853 1.903 1.902 1.903 1.05 0 1.903-.853 1.903-1.903 0-.009.039-.017.039-.028 14.691-.138 26.49-9.207 26.797-20.381v-.232c0-11.283-12.02-20.477-26.816-20.614M48.326 26.855c.03-.048.05-.104.05-.162 0-.043-.01-.082-.025-.117.12-.6.65-1.054 1.284-1.054.721 0 1.308.59 1.308 1.311 0 .723-.587 1.311-1.308 1.311-.717 0-1.297-.577-1.31-1.29zm.025-7.872c.016-.036.025-.074.025-.117 0-.059-.02-.115-.05-.162.012-.713.592-1.289 1.309-1.289.721 0 1.308.588 1.308 1.31 0 .722-.587 1.31-1.308 1.31-.635 0-1.164-.453-1.284-1.052zm10.493 24.313c0-.062.005-.121.015-.183.023-.04.035-.086.035-.136l-.002-.025c.15-.556.66-.965 1.262-.965.722 0 1.31.587 1.31 1.31 0 .722-.588 1.31-1.31 1.31-.722 0-1.31-.588-1.31-1.31zm-3.407-5.783c0-.722.588-1.312 1.309-1.312.722 0 1.31.59 1.31 1.312 0 .722-.588 1.31-1.31 1.31-.721 0-1.31-.588-1.31-1.31zm-3.704-5.488c0-.724.587-1.311 1.31-1.311.72 0 1.309.587 1.309 1.31 0 .723-.589 1.31-1.31 1.31-.722 0-1.31-.587-1.31-1.31zm-8.15-9.295c0-.722.588-1.31 1.31-1.31.723 0 1.31.588 1.31 1.31 0 .722-.587 1.31-1.31 1.31-.722 0-1.31-.588-1.31-1.31zm8.15-9.195c0-.723.587-1.31 1.31-1.31.72 0 1.309.587 1.309 1.31 0 .722-.589 1.31-1.31 1.31-.722 0-1.31-.588-1.31-1.31zm3.704-5.489c0-.722.588-1.31 1.309-1.31.722 0 1.31.588 1.31 1.31 0 .723-.588 1.312-1.31 1.312-.721 0-1.31-.589-1.31-1.312zm3.425-5.579c.02-.04.032-.084.032-.13 0-.058-.016-.11-.047-.158.043-.684.613-1.228 1.307-1.228.722 0 1.31.589 1.31 1.312 0 .721-.588 1.31-1.31 1.31-.653 0-1.192-.48-1.292-1.106zm-27.298 20.42c.31 11.175 12.031 20.243 26.721 20.382 0 .01-.017.02-.017.027 0 1.05.844 1.904 1.894 1.904 1.047 0 1.898-.855 1.898-1.904 0-1.048-.856-1.903-1.904-1.903-.832 0-1.54.537-1.797 1.285-13.76-.094-25.051-8.136-26.186-18.329.743 1.429 2.138 3.733 4.389 6.06 3.306 3.415 9.15 7.487 18.21 7.487.037 0 .075-.009.106-.02.17.875.944 1.541 1.868 1.541 1.05 0 1.902-.856 1.902-1.904 0-1.05-.852-1.904-1.902-1.904-.982 0-1.794.75-1.892 1.708-.026-.01-.054-.015-.083-.015-8.852 0-14.557-3.973-17.784-7.307-2.112-2.182-3.464-4.376-4.21-5.78.986.892 2.534 2.185 4.49 3.467 3.223 2.112 8.247 4.628 13.898 4.634.14.912.927 1.612 1.877 1.612 1.049 0 1.903-.854 1.903-1.904 0-1.049-.854-1.904-1.903-1.904-.945 0-1.73.695-1.875 1.603-8.44-.012-15.593-5.76-18.158-8.104 2.845 1.02 9.643 3.263 14.732 3.36.077.979.896 1.75 1.894 1.75 1.047 0 1.901-.866 1.901-1.916 0-1.05-.854-1.923-1.901-1.923-.897 0-1.65.623-1.849 1.46-4.948-.084-11.591-2.1-14.469-3.333h9.711c.173.926.944 1.553 1.865 1.553 1.048 0 1.902-.817 1.902-1.867 0-1.049-.854-1.92-1.902-1.92-.973 0-1.778.693-1.888 1.618h-9.827c2.798-.925 9.58-3.202 14.608-3.288.2.838.952 1.534 1.849 1.534 1.047 0 1.901-.863 1.901-1.912 0-1.05-.854-1.909-1.901-1.909-.998 0-1.817.771-1.894 1.751-5.09.098-11.887 2.34-14.732 3.362 2.565-2.344 9.718-8.091 18.158-8.103.144.907.93 1.603 1.875 1.603 1.049 0 1.903-.855 1.903-1.904 0-1.05-.854-1.904-1.903-1.904-.95 0-1.736.7-1.877 1.612-5.65.007-10.675 2.524-13.899 4.635-1.92 1.26-3.448 2.527-4.434 3.418.756-1.412 2.102-3.565 4.173-5.7 3.226-3.326 8.927-7.289 17.766-7.289.033 0 .063-.007.09-.016.122.935.92 1.66 1.885 1.66 1.05 0 1.902-.855 1.902-1.905s-.852-1.903-1.902-1.903c-.942 0-1.723.69-1.873 1.59-.032-.013-.066-.02-.102-.02-9.06 0-14.903 4.072-18.21 7.488-2.29 2.366-3.693 4.708-4.424 6.128.9-10.348 12.259-18.572 26.153-18.693.175.872.944 1.53 1.864 1.53 1.05 0 1.904-.854 1.904-1.903 0-1.05-.85-1.904-1.898-1.904-.975 0-1.746.737-1.854 1.683-14.798.137-26.742 9.331-26.742 20.614v.232z" transform="translate(0 .042)"/>
        </g>
    </g>
</svg>
