<svg xmlns="http://www.w3.org/2000/svg" xmlns:xlink="http://www.w3.org/1999/xlink" width="145" height="35" viewBox="0 0 145 35">
    <defs>
        <path id="prefix__a" d="M0 0L144.934 0 144.934 34.792 0 34.792z"/>
    </defs>
    <g fill="none" fill-rule="evenodd">
        <mask id="prefix__b" fill="#fff">
            <use xlink:href="#prefix__a"/>
        </mask>
        <path fill="#FFF" d="M143.871 14.135c-.709-1.127-1.684-2.01-2.926-2.648-1.242-.638-2.642-.958-4.2-.958-1.557 0-2.957.32-4.199.958-1.242.638-2.218 1.521-2.926 2.648-.709 1.127-1.063 2.397-1.063 3.81 0 1.412.354 2.682 1.063 3.808.708 1.127 1.684 2.01 2.926 2.648 1.242.639 2.642.958 4.2.958 1.557 0 2.957-.32 4.2-.958 1.241-.637 2.216-1.52 2.925-2.648.708-1.126 1.063-2.396 1.063-3.809 0-1.412-.355-2.682-1.063-3.809zm-3.673 5.938c-.351.618-.829 1.097-1.432 1.436-.604.34-1.277.51-2.02.51-.745 0-1.418-.17-2.021-.51-.604-.34-1.081-.818-1.432-1.436-.35-.618-.526-1.328-.526-2.129 0-.801.175-1.51.526-2.129.35-.617.828-1.096 1.432-1.435.603-.34 1.276-.51 2.02-.51s1.417.17 2.02.51c.604.339 1.082.818 1.433 1.435.35.618.526 1.328.526 2.13 0 .8-.175 1.51-.526 2.128zm-67.174-9.259v14.26h-3.832v-7.558l-3.789 6.152h-1.852l-3.769-5.948v7.354H55.93v-14.26h3.431l5.179 8.23 5.052-8.23h3.432zM44.57 21.957h7.705v3.117H40.445v-14.26h11.557v3.117h-7.43v2.403h6.546v3.016H44.57v2.607zm71.963-6.977c-.772.74-1.158 1.729-1.158 2.964 0 .788.175 1.49.527 2.108.35.618.842 1.1 1.473 1.447.632.346 1.354.52 2.168.52.8 0 1.551-.157 2.253-.47v-3.91h3.684v5.907c-.842.584-1.81 1.032-2.905 1.345-1.095.312-2.19.468-3.284.468-1.544 0-2.934-.316-4.169-.948-1.234-.63-2.203-1.51-2.904-2.638-.702-1.127-1.053-2.403-1.053-3.829 0-1.426.35-2.702 1.053-3.83.701-1.127 1.676-2.006 2.926-2.637 1.249-.632 2.66-.948 4.231-.948 1.375 0 2.61.225 3.705.673 1.095.448 2.007 1.093 2.737 1.935l-2.653 2.322c-.996-1.06-2.19-1.589-3.578-1.589-1.263 0-2.281.37-3.053 1.11zm-8.961 3.81c.498-.767.747-1.668.747-2.7 0-1.073-.267-2.006-.8-2.801-.534-.794-1.292-1.405-2.274-1.833-.982-.428-2.14-.642-3.473-.642h-6.736v14.26h4.168v-3.789h2.273l2.674 3.789h4.463l-3.18-4.482c.927-.434 1.639-1.035 2.138-1.802zm-4.116-1.162c-.435.36-1.08.54-1.937.54h-2.315v-4.176h2.315c.856 0 1.502.184 1.937.55.435.367.653.883.653 1.549 0 .665-.218 1.178-.653 1.537zm-16.605-6.814h4.105v7.904c0 2.119-.607 3.755-1.82 4.91-1.215 1.154-2.916 1.73-5.106 1.73s-3.89-.576-5.104-1.73c-1.214-1.155-1.821-2.791-1.821-4.91v-7.904h4.167v7.782c0 2.281.934 3.423 2.8 3.423 1.853 0 2.779-1.142 2.779-3.423v-7.782zM21.53 6.303c0-1.779 1.49-3.22 3.326-3.22 1.838 0 3.328 1.44 3.328 3.219 0 1.777-1.49 3.22-3.326 3.22-1.838 0-3.328-1.442-3.328-3.22zm11.776 7.157c0 1.63-1.364 2.95-3.048 2.95s-3.049-1.32-3.049-2.95c0-1.628 1.364-2.95 3.048-2.95s3.049 1.32 3.05 2.95zm-.278 9.217c0 1.48-1.24 2.682-2.77 2.682s-2.771-1.2-2.771-2.68c-.001-1.482 1.24-2.683 2.77-2.683s2.771 1.2 2.771 2.681zm-5.678 7.16c0 1.331-1.116 2.411-2.492 2.411-1.378 0-2.494-1.08-2.494-2.412 0-1.332 1.116-2.412 2.492-2.412 1.378 0 2.493 1.08 2.494 2.412zm-9.177 2.812c0 1.184-.991 2.143-2.214 2.143-1.224 0-2.215-.959-2.215-2.142 0-1.184.99-2.144 2.214-2.144 1.223 0 2.215.96 2.215 2.143zm-9.177-2.812c0 1.034-.866 1.874-1.936 1.874-1.07 0-1.937-.839-1.937-1.874 0-1.035.867-1.874 1.937-1.874s1.936.838 1.936 1.874zm-5.679-7.158c0 .886-.742 1.604-1.658 1.604C.743 24.283 0 23.565 0 22.68c0-.886.742-1.605 1.659-1.605.915 0 1.658.718 1.658 1.605zm-3.04-9.217c0-.738.618-1.336 1.38-1.336.763 0 1.381.598 1.381 1.335 0 .738-.617 1.337-1.38 1.337-.763 0-1.38-.599-1.38-1.336zm5.678-7.159c0-.59.494-1.067 1.102-1.067.61 0 1.103.478 1.103 1.067 0 .588-.494 1.066-1.103 1.066-.608 0-1.102-.477-1.102-1.066zm6.399-2.814c0-1.927 1.613-3.49 3.604-3.49s3.606 1.562 3.606 3.49c0 1.925-1.614 3.488-3.604 3.488-1.992 0-3.606-1.561-3.606-3.488zm8.25 7.11c1.019 0 1.844.798 1.844 1.783 0 .986-.825 1.785-1.843 1.785s-1.844-.799-1.844-1.784.825-1.784 1.843-1.784zm4.683 5.75c0 .904-.756 1.636-1.69 1.636-.933 0-1.69-.732-1.69-1.635 0-.902.757-1.635 1.69-1.635.933 0 1.69.732 1.69 1.635zm-3.225 5.109c0-.82.687-1.486 1.535-1.486.848 0 1.536.665 1.536 1.485 0 .82-.687 1.487-1.535 1.487-.849 0-1.536-.666-1.536-1.486zm-.076 3.967c0 .738-.618 1.336-1.381 1.336s-1.381-.598-1.381-1.336c0-.738.617-1.337 1.38-1.337.764 0 1.382.598 1.382 1.337zm-7.54 1.559c0-.656.549-1.188 1.227-1.188s1.228.531 1.228 1.188c0 .655-.55 1.188-1.228 1.188-.678 0-1.227-.532-1.227-1.188zm-2.63-1.559c0 .574-.481 1.039-1.074 1.039-.593 0-1.074-.465-1.074-1.038 0-.574.48-1.039 1.074-1.039.592 0 1.073.465 1.073 1.038zm-3.148-3.967c0 .491-.412.89-.919.89-.508 0-.92-.399-.92-.89 0-.49.412-.89.92-.89.507 0 .919.4.919.89zm-.92-5.848c.422 0 .765.331.765.74 0 .41-.342.74-.764.74-.423 0-.766-.33-.766-.74 0-.409.343-.74.765-.74zm2.381-3.227c0-.326.274-.59.611-.59.338 0 .611.264.611.59 0 .326-.273.59-.61.59-.338.002-.612-.264-.612-.59zm5.544.374c-1.103 0-1.997-.865-1.997-1.933s.894-1.933 1.997-1.934c1.103 0 1.998.865 1.998 1.934 0 1.067-.894 1.932-1.998 1.933zm1.305 3.286c0-.445.372-.805.831-.805.46 0 .832.36.832.804 0 .445-.372.805-.831.805-.46 0-.832-.36-.832-.804zm1.419 1.788c0-.407.341-.737.761-.737s.762.33.762.737-.34.737-.761.737-.762-.33-.762-.737zm.761 2.973c-.382 0-.692-.3-.692-.67 0-.37.31-.67.692-.67.383 0 .693.3.693.67 0 .37-.31.67-.693.67zm-.726 1.119c0 .333-.279.602-.623.602s-.623-.27-.623-.602c0-.333.28-.603.623-.603.344 0 .623.27.623.603zm-2.846.167c.305 0 .553.239.553.536 0 .295-.247.535-.553.535-.305 0-.553-.24-.553-.535 0-.297.247-.536.553-.536zm-1.74-.167c0 .259-.216.468-.483.468s-.484-.21-.484-.468c0-.259.216-.469.484-.469.267 0 .484.21.484.469zm-1.419-1.789c0 .221-.185.401-.413.401-.23 0-.415-.18-.415-.4 0-.222.185-.402.414-.402.23 0 .414.18.414.401zm-.759-2.303c0-.184.154-.333.345-.333.19 0 .345.149.345.333 0 .185-.155.334-.345.334-.19 0-.345-.15-.345-.334zm1.694-2.054c.152 0 .275.119.275.266 0 .147-.122.266-.275.266-.152 0-.275-.119-.275-.266 0-.147.123-.266.275-.266zm2.224.434c-.497 0-.9-.39-.9-.872 0-.48.403-.871.9-.871.498 0 .9.39.9.871 0 .482-.402.872-.9.872z" mask="url(#prefix__b)"/>
    </g>
</svg>
