<svg xmlns="http://www.w3.org/2000/svg" xmlns:xlink="http://www.w3.org/1999/xlink" width="145" height="46" viewBox="0 0 145 46">
    <defs>
        <path id="prefix__a" d="M0 45.2L144.895 45.2 144.895 0.117 0 0.117z"/>
    </defs>
    <g fill="none" fill-rule="evenodd">
        <path fill="#FFF" d="M62.599 34.654L61.628 34.654 61.628 26.261 66.287 26.261 66.287 27.128 62.599 27.128 62.599 30.199 66.064 30.199 66.064 31.066 62.599 31.066z"/>
        <g transform="translate(0 .283)">
            <path fill="#FFF" d="M69.308 30.163c0 1.137.24 2 .723 2.587.482.587 1.182.88 2.1.88.928 0 1.626-.292 2.1-.878.472-.585.708-1.448.708-2.589 0-1.129-.235-1.985-.706-2.569-.47-.584-1.167-.875-2.09-.875-.926 0-1.63.293-2.112.881-.483.588-.723 1.442-.723 2.563m6.66 0c0 1.343-.338 2.4-1.014 3.17-.677.769-1.618 1.153-2.822 1.153-1.231 0-2.181-.378-2.85-1.134-.669-.756-1.003-1.822-1.003-3.2 0-1.366.335-2.426 1.006-3.178.67-.752 1.624-1.128 2.859-1.128 1.2 0 2.138.383 2.812 1.148.675.766 1.013 1.822 1.013 3.17M85.187 25.978v5.43c0 .958-.288 1.71-.864 2.257-.576.548-1.366.821-2.373.821-1.006 0-1.784-.275-2.335-.827-.551-.55-.826-1.308-.826-2.273v-5.408h.972v5.477c0 .7.19 1.238.571 1.614.381.374.942.562 1.681.562.705 0 1.249-.189 1.63-.566.38-.377.572-.917.572-1.622v-5.465h.972zM94.97 34.371h-1.109l-4.568-7.044h-.046c.061.827.092 1.585.092 2.274v4.77h-.898v-8.393h1.098l4.557 7.015h.045c-.007-.103-.025-.435-.05-.996-.028-.56-.038-.961-.03-1.202v-4.817h.91v8.393zM103.954 30.129c0-1.095-.274-1.92-.82-2.475-.548-.554-1.36-.832-2.439-.832h-1.412v6.706h1.183c1.159 0 2.03-.287 2.613-.859.584-.572.875-1.419.875-2.54m1.029-.034c0 1.385-.374 2.444-1.123 3.177-.75.733-1.827 1.1-3.233 1.1H98.31v-8.394h2.561c1.3 0 2.31.362 3.03 1.085.721.724 1.08 1.734 1.08 3.032M111.8 30.823l-.972-2.6c-.126-.33-.255-.733-.39-1.212-.082.368-.203.771-.359 1.212l-.983 2.6h2.704zm1.344 3.548l-1.041-2.67h-3.35l-1.03 2.67h-.983l3.304-8.428h.818l3.287 8.428h-1.005zM118.914 34.371L117.942 34.371 117.942 26.845 115.295 26.845 115.295 25.978 121.561 25.978 121.561 26.845 118.914 26.845z"/>
            <mask id="prefix__b" fill="#fff">
                <use xlink:href="#prefix__a"/>
            </mask>
            <path fill="#FFF" d="M123.861 34.371L124.833 34.371 124.833 25.978 123.861 25.978zM128.762 30.163c0 1.137.241 2 .723 2.587.483.587 1.183.88 2.102.88.926 0 1.625-.292 2.098-.878.472-.585.709-1.448.709-2.589 0-1.129-.235-1.985-.706-2.569-.47-.584-1.167-.875-2.09-.875-.926 0-1.63.293-2.113.881-.482.588-.723 1.442-.723 2.563m6.661 0c0 1.343-.338 2.4-1.015 3.17-.676.769-1.617 1.153-2.821 1.153-1.231 0-2.182-.378-2.85-1.134-.67-.756-1.003-1.822-1.003-3.2 0-1.366.335-2.426 1.006-3.178.67-.752 1.623-1.128 2.858-1.128 1.2 0 2.138.383 2.813 1.148.675.766 1.012 1.822 1.012 3.17M144.858 34.371h-1.109l-4.568-7.044h-.046c.061.827.092 1.585.092 2.274v4.77h-.898v-8.393h1.098l4.557 7.015h.045c-.007-.103-.024-.435-.05-.996-.028-.56-.037-.961-.03-1.202v-4.817h.91v8.393zM66.943 9.999c1.59 0 2.705.878 2.705 2.508h2.084c0-2.86-2.1-4.234-4.821-4.234-3.342 0-5.284 1.821-5.284 5.672 0 3.947 1.942 5.673 5.284 5.673 2.753 0 4.821-1.342 4.821-4.202h-2.005c0 1.597-1.098 2.476-2.784 2.476-2.212 0-3.23-1.23-3.23-3.787v-.32c0-2.508 1.034-3.786 3.23-3.786M77.243 8.464l-4.249 10.962h2.1l.875-2.38h4.998l.89 2.38h2.197L79.805 8.464h-2.562zm-.637 6.856l1.115-3.005c.222-.591.62-1.87.7-2.093h.08c.078.224.476 1.518.7 2.093l1.113 3.005h-3.708zM95.419 11.788c0-2.029-1.162-3.324-3.565-3.324h-5.76v10.962h2.037v-4.234h3.389l2.069 4.234h2.228l-2.34-4.554c1.29-.51 1.942-1.598 1.942-3.084m-3.724 1.678h-3.564v-3.26h3.564c1.098 0 1.67.591 1.67 1.582 0 1.04-.62 1.678-1.67 1.678M102.565 8.464h-4.36v10.962h4.36c3.294 0 5.3-1.726 5.3-5.48 0-3.756-2.006-5.482-5.3-5.482zm3.214 5.641c-.015 2.397-1.145 3.58-3.214 3.58h-2.323v-7.479h2.323c2.069 0 3.214 1.183 3.214 3.58v.32zM113.197 8.464l-4.25 10.962h2.1l.876-2.38h4.997l.892 2.38h2.196l-4.25-10.962h-2.561zm-.637 6.856l1.114-3.005c.223-.591.62-1.87.7-2.093h.08c.08.224.477 1.518.7 2.093l1.113 3.005h-3.707zM129.32 14.984c0 .208.031.767.031.863l-.08.031c-.047-.063-.365-.622-.54-.878l-4.742-6.536h-1.942v10.962h1.958v-6.567c0-.272-.032-.8-.032-.879l.08-.048c.047.064.286.527.54.895l4.775 6.599h1.909V8.464h-1.957v6.52zM139.39 8.273c-3.422 0-5.49 1.822-5.49 5.672 0 3.851 2.068 5.673 5.49 5.673 3.42 0 5.505-1.822 5.505-5.673 0-3.85-2.085-5.672-5.506-5.672zm3.42 5.848c0 2.51-1.193 3.771-3.42 3.771-2.213 0-3.406-1.262-3.406-3.771v-.336c0-2.508 1.21-3.786 3.405-3.786 2.212 0 3.421 1.278 3.421 3.786v.336zM13.315 22.489c-.102 1.808 1.28 3.364 3.08 3.467.065.003.127.005.19.005 1.731 0 3.165-1.36 3.264-3.1.103-1.808-1.28-3.364-3.081-3.466-1.812-.106-3.35 1.293-3.453 3.094M1.117 21.65c-.583-.034-1.083.413-1.115 1-.034.584.412 1.087.995 1.12.583.034 1.083-.414 1.116-1 .033-.586-.412-1.087-.996-1.12M13.107 3.425c.522-.263.732-.902.47-1.426-.265-.524-.9-.734-1.422-.47-.521.264-.73.902-.468 1.426.263.524.898.734 1.42.47M16.427 9.237c.806-.407 1.13-1.394.724-2.204-.406-.809-1.389-1.134-2.196-.727-.806.408-1.13 1.395-.724 2.205.407.81 1.39 1.135 2.196.726M5.258 13.234c.622.41 1.456.236 1.864-.39.407-.623.234-1.46-.388-1.87-.622-.41-1.456-.235-1.864.389-.408.624-.234 1.463.388 1.871M7.246 21.058c-.9-.052-1.673.64-1.725 1.545-.05.906.639 1.68 1.54 1.732.901.052 1.674-.64 1.725-1.546.051-.905-.638-1.68-1.54-1.731M5.436 32.087c-.664.335-.93 1.148-.596 1.815.335.667 1.144.934 1.808.599.664-.337.931-1.15.596-1.816-.334-.667-1.143-.935-1.808-.598M11.786 17.667c.888.585 2.08.336 2.663-.556.582-.891.334-2.088-.554-2.673-.888-.585-2.08-.336-2.662.555-.583.893-.335 2.089.553 2.674M31.934 9.107c.756.497 1.768.285 2.263-.473.496-.757.286-1.775-.47-2.272-.754-.498-1.768-.287-2.263.472-.495.758-.284 1.776.47 2.273M35.288 3.314c.489.322 1.145.184 1.465-.306.32-.49.184-1.15-.305-1.47-.488-.322-1.144-.185-1.465.305-.32.491-.183 1.149.305 1.471M32.192 19.361c-1.812-.106-3.351 1.293-3.453 3.093-.102 1.81 1.28 3.365 3.08 3.467.063.004.127.006.189.006 1.732 0 3.166-1.361 3.264-3.099.05-.876-.243-1.72-.825-2.374-.581-.655-1.383-1.043-2.255-1.093M17.502 17.44c.56 1.114 1.679 1.807 2.924 1.807.506 0 1.015-.122 1.47-.352 1.61-.815 2.261-2.795 1.45-4.413-.56-1.115-1.68-1.807-2.925-1.807-.506 0-1.015.122-1.47.35-1.611.816-2.261 2.796-1.45 4.414M43.151 13.23c.664-.335.931-1.148.597-1.816-.335-.666-1.144-.934-1.808-.598-.665.336-.931 1.149-.597 1.816.336.666 1.144.934 1.808.599M34.853 14.277c-.95.48-1.33 1.642-.853 2.594.479.952 1.635 1.335 2.584.856.948-.48 1.33-1.642.852-2.594-.478-.952-1.635-1.336-2.583-.856M24.171 2.819c.742.042 1.378-.527 1.42-1.274.042-.744-.525-1.383-1.267-1.425-.742-.043-1.38.527-1.42 1.272-.043.746.524 1.385 1.267 1.427M24.156 11.324c1.06.06 1.969-.754 2.03-1.819.06-1.065-.751-1.978-1.813-2.038-1.06-.06-1.968.754-2.028 1.819-.06 1.064.75 1.977 1.81 2.038M13.735 31.04c.949-.48 1.33-1.641.853-2.593-.479-.953-1.635-1.336-2.583-.856-.949.48-1.33 1.64-.853 2.593.479.953 1.635 1.335 2.583.856M25.399 14.141c-.99 1.516-.567 3.556.942 4.55.535.352 1.154.538 1.791.538 1.11 0 2.132-.554 2.74-1.483.989-1.516.566-3.557-.943-4.55-.534-.352-1.154-.539-1.791-.539-1.109 0-2.132.555-2.739 1.484M31.087 27.878c-.56-1.115-1.68-1.808-2.924-1.808-.507 0-1.016.12-1.47.352-.781.395-1.362 1.07-1.635 1.905-.274.833-.209 1.724.185 2.508.559 1.114 1.68 1.807 2.923 1.807.507 0 1.015-.121 1.472-.352 1.61-.815 2.261-2.795 1.449-4.412M36.801 27.65c-.887-.585-2.08-.336-2.662.556-.583.89-.334 2.088.554 2.673.888.585 2.08.336 2.662-.556.582-.891.335-2.089-.554-2.674M43.066 22.714c.052-.905-.638-1.681-1.54-1.733-.9-.05-1.673.641-1.725 1.546-.051.905.638 1.68 1.54 1.733.902.051 1.674-.642 1.725-1.546M47.591 21.546c-.584-.033-1.083.415-1.117 1-.033.586.413 1.089.997 1.122.583.033 1.083-.415 1.116-1 .033-.587-.413-1.089-.996-1.122M43.33 32.082c-.622-.41-1.457-.235-1.864.39-.408.623-.234 1.462.388 1.87.621.41 1.455.236 1.864-.388.407-.625.234-1.462-.388-1.872M13.3 42.003c-.489-.322-1.144-.185-1.465.306-.32.49-.184 1.149.305 1.47.488.322 1.144.184 1.464-.305.32-.492.184-1.15-.304-1.47M35.48 41.891c-.52.264-.73.902-.467 1.427.262.523.898.733 1.42.47.521-.265.732-.902.468-1.426-.262-.524-.899-.734-1.42-.47M23.19 31.175c.478-.734.645-1.611.467-2.47-.179-.86-.679-1.598-1.41-2.08-.535-.351-1.155-.538-1.793-.538-1.107 0-2.13.554-2.738 1.484-.479.734-.645 1.612-.467 2.47.178.86.679 1.598 1.41 2.08.534.352 1.154.538 1.791.538 1.108 0 2.132-.555 2.74-1.484M16.653 36.21c-.755-.497-1.767-.286-2.263.472s-.285 1.775.47 2.273c.755.497 1.768.285 2.264-.472.495-.76.284-1.776-.47-2.273M24.279 42.498c-.743-.043-1.379.527-1.421 1.273-.042.745.525 1.384 1.268 1.427.742.041 1.379-.528 1.42-1.274.042-.745-.525-1.384-1.267-1.426M24.293 33.993c-1.06-.06-1.968.754-2.028 1.818-.061 1.065.75 1.978 1.81 2.038 1.061.06 1.97-.753 2.03-1.818.06-1.065-.75-1.978-1.812-2.038M32.16 36.079c-.805.408-1.13 1.394-.723 2.204.406.81 1.389 1.135 2.195.727.807-.407 1.13-1.394.725-2.204-.406-.81-1.39-1.136-2.197-.727" mask="url(#prefix__b)"/>
        </g>
    </g>
</svg>
